<?xml version="1.0" encoding="UTF-8"?>
<svg version="1.1" xmlns="http://www.w3.org/2000/svg" width="256" height="256">
<path d="M0 0 C0.474375 1.11375 0.94875 2.2275 1.4375 3.375 C4.31161395 9.10305868 8.58237676 13.42261995 13 18 C13.79921875 18.83917969 14.5984375 19.67835938 15.421875 20.54296875 C21.24397222 26.52267051 27.45434119 31.83184543 34 37 C34.82886719 37.76570313 35.65773438 38.53140625 36.51171875 39.3203125 C38.84445383 41.23432594 38.84445383 41.23432594 41.49609375 40.9921875 C50.99522304 37.22810195 59.57728457 26.98727646 67 20 C67.85207031 19.21367187 68.70414063 18.42734375 69.58203125 17.6171875 C74.56741062 12.87156933 78.05334926 8.22216874 81 2 C81.33 1.34 81.66 0.68 82 0 C100.06111843 0.79916453 115.80986191 9.41586712 128.22265625 22.30859375 C141.30216274 37.65622275 146.1426731 56.14605495 145 76 C143.58793761 84.52428842 140.75153064 91.38555506 133.75390625 96.83984375 C120.45291462 105.63804979 103.3362262 105.15203524 87.99365234 105.14526367 C86.31020218 105.15030159 86.31020218 105.15030159 84.59274292 105.15544128 C80.92379617 105.16485238 77.25489554 105.16688948 73.5859375 105.16796875 C71.00444521 105.17118842 68.4229531 105.17455301 65.84146118 105.17805481 C60.44361877 105.1840217 55.04579427 105.18594047 49.64794922 105.18530273 C43.46038987 105.18470355 37.27291814 105.19523446 31.08538091 105.2110464 C25.07489317 105.22584342 19.06445196 105.22928686 13.05394363 105.22869301 C10.52417265 105.22986194 7.99440079 105.23422154 5.46464157 105.24202538 C-42.49208472 105.37610856 -42.49208472 105.37610856 -55 94 C-62.12887729 86.67845035 -63.25481597 76.88844367 -63.2487793 67.07885742 C-62.98674693 51.38896246 -57.59627891 37.2874093 -48 25 C-47.48953125 24.31292969 -46.9790625 23.62585938 -46.453125 22.91796875 C-36.07069216 9.88852952 -16.831387 -0.58144791 0 0 Z M86 43 C84.67770811 45.64458379 84.90322806 47.67761301 84.9375 50.625 C84.95103516 52.12933594 84.95103516 52.12933594 84.96484375 53.6640625 C84.97644531 54.43492187 84.98804688 55.20578125 85 56 C84.22914063 55.98839844 83.45828125 55.97679687 82.6640625 55.96484375 C81.66117188 55.95582031 80.65828125 55.94679688 79.625 55.9375 C78.12839844 55.92009766 78.12839844 55.92009766 76.6015625 55.90234375 C74.01567547 55.81993398 74.01567547 55.81993398 72 57 C71.97313447 58.97909398 71.95366625 60.95828971 71.9375 62.9375 C71.92589844 64.03964844 71.91429687 65.14179688 71.90234375 66.27734375 C71.68737429 68.91447634 71.68737429 68.91447634 73 70 C75.01964199 70.07244053 77.04167124 70.08377188 79.0625 70.0625 C80.16722656 70.05347656 81.27195313 70.04445313 82.41015625 70.03515625 C83.26480469 70.02355469 84.11945313 70.01195312 85 70 C84.98839844 70.85464844 84.97679687 71.70929688 84.96484375 72.58984375 C84.95582031 73.69457031 84.94679687 74.79929687 84.9375 75.9375 C84.92589844 77.03964844 84.91429687 78.14179688 84.90234375 79.27734375 C84.68737429 81.91447634 84.68737429 81.91447634 86 83 C88.18639453 83.07258946 90.37500389 83.08373783 92.5625 83.0625 C95.7490625 83.0315625 95.7490625 83.0315625 99 83 C99 78.71 99 74.42 99 70 C103.29 70 107.58 70 112 70 C112.020625 67.875625 112.04125 65.75125 112.0625 63.5625 C112.07410156 62.36753906 112.08570313 61.17257813 112.09765625 59.94140625 C112.33901792 57.11126659 112.33901792 57.11126659 111 56 C108.98035801 55.92755947 106.95832876 55.91622812 104.9375 55.9375 C103.83277344 55.94652344 102.72804687 55.95554687 101.58984375 55.96484375 C100.73519531 55.97644531 99.88054687 55.98804688 99 56 C99.01160156 55.14535156 99.02320313 54.29070312 99.03515625 53.41015625 C99.04417969 52.30542969 99.05320313 51.20070313 99.0625 50.0625 C99.07410156 48.96035156 99.08570313 47.85820312 99.09765625 46.72265625 C99.31262571 44.08552366 99.31262571 44.08552366 98 43 C95.98035801 42.92755947 93.95832876 42.91622812 91.9375 42.9375 C90.83277344 42.94652344 89.72804687 42.95554688 88.58984375 42.96484375 C87.73519531 42.97644531 86.88054687 42.98804688 86 43 Z " fill="#6B6B6B" transform="translate(87,139)"/>
<path d="M0 0 C11.64820176 10.97856232 18.16460064 24.55687927 18.79125977 40.53881836 C19.16191065 66.28684802 8.98182065 89.64443554 -8.41015625 108.421875 C-16.94695966 116.97305013 -26.19719855 122.54066132 -38.41796875 122.99609375 C-50.7734596 122.79504286 -60.71171131 116.84505037 -69.48046875 108.43359375 C-85.4195156 91.58859753 -96.19195467 67.69590376 -96.04296875 44.37109375 C-96.0373291 43.44498291 -96.03168945 42.51887207 -96.02587891 41.56469727 C-95.90724347 34.88763629 -95.31639371 28.96415759 -92.73046875 22.74609375 C-92.35148437 21.78960937 -91.9725 20.833125 -91.58203125 19.84765625 C-85.23332658 5.57224517 -74.0040821 -4.32350502 -59.79296875 -10.56640625 C-39.17932954 -18.07404251 -16.87395456 -13.92885806 0 0 Z " fill="#6B6B6B" transform="translate(166.73046875,26.25390625)"/>
</svg>
