<svg width="14" height="14" viewBox="0 0 14 14" fill="none" xmlns="http://www.w3.org/2000/svg">
<path d="M12.75 0.75H1.25C0.973437 0.75 0.75 0.973437 0.75 1.25V12.75C0.75 13.0266 0.973437 13.25 1.25 13.25H12.75C13.0266 13.25 13.25 13.0266 13.25 12.75V1.25C13.25 0.973437 13.0266 0.75 12.75 0.75ZM5.87813 10.9531H5.08437C5.05 10.9531 5.01406 10.9359 4.99219 10.9078L4.4375 10.2281L3.88281 10.9078C3.87199 10.922 3.85804 10.9334 3.84204 10.9413C3.82605 10.9492 3.80845 10.9532 3.79063 10.9531H2.99688C2.89375 10.9531 2.8375 10.8297 2.90625 10.7484L3.88594 9.54844L2.92969 8.37813C2.8625 8.29688 2.91875 8.17344 3.02187 8.17344H3.81719C3.85156 8.17344 3.8875 8.19063 3.90938 8.21875L4.44063 8.86875L4.97188 8.21875C4.99531 8.18906 5.02813 8.17344 5.06406 8.17344H5.85781C5.96094 8.17344 6.01719 8.29688 5.95 8.37813L4.99219 9.54688L5.97188 10.7469C6.0375 10.8297 5.98125 10.9531 5.87813 10.9531ZM6 4.98438C6 5.01875 5.97812 5.04688 5.95 5.04688H4.875V6.12031C4.875 6.15 4.84688 6.17188 4.8125 6.17188H4.0625C4.02813 6.17188 4 6.15 4 6.12187V5.04688H2.925C2.89687 5.04688 2.875 5.01875 2.875 4.98438V4.23438C2.875 4.2 2.89687 4.17188 2.925 4.17188H4V3.09688C4 3.06875 4.02813 3.04688 4.0625 3.04688H4.8125C4.84688 3.04688 4.875 3.06875 4.875 3.09688V4.17188H5.94844C5.97813 4.17188 6 4.2 6 4.23438V4.98438ZM11.125 10.75C11.125 10.7844 11.1031 10.8125 11.075 10.8125H8.05C8.02188 10.8125 8 10.7844 8 10.75V10C8 9.96562 8.02188 9.9375 8.05 9.9375H11.0734C11.1031 9.9375 11.125 9.96562 11.125 10V10.75ZM11.125 9.125C11.125 9.15938 11.1031 9.1875 11.075 9.1875H8.05C8.02188 9.1875 8 9.15938 8 9.125V8.375C8 8.34062 8.02188 8.3125 8.05 8.3125H11.0734C11.1031 8.3125 11.125 8.34062 11.125 8.375V9.125ZM11.125 4.98438C11.125 5.01875 11.1031 5.04688 11.075 5.04688H8.05C8.02188 5.04688 8 5.01875 8 4.98438V4.23438C8 4.2 8.02188 4.17188 8.05 4.17188H11.0734C11.1031 4.17188 11.125 4.2 11.125 4.23438V4.98438Z" fill="#6C6C6C"/>
</svg>
