<svg width="14" height="14" viewBox="0 0 14 14" fill="none" xmlns="http://www.w3.org/2000/svg">
<path d="M10.3335 0.333328H3.66683C2.9335 0.333328 2.3335 0.933328 2.3335 1.66666V2.99999C2.3335 3.73333 2.9335 4.33333 3.66683 4.33333H10.3335C11.0668 4.33333 11.6668 3.73333 11.6668 2.99999V1.66666C11.6668 0.933328 11.0668 0.333328 10.3335 0.333328ZM10.3335 2.99999H3.66683V1.66666H10.3335V2.99999ZM12.3335 13.6667H1.66683C0.933496 13.6667 0.333496 13.0667 0.333496 12.3333V11.6667H13.6668V12.3333C13.6668 13.0667 13.0668 13.6667 12.3335 13.6667ZM11.3535 5.79333C11.2482 5.55762 11.077 5.35736 10.8606 5.21662C10.6441 5.07588 10.3917 5.00065 10.1335 4.99999H3.86683C3.34016 4.99999 2.86016 5.31333 2.64683 5.79333L0.333496 11H13.6668L11.3535 5.79333ZM5.3335 9.66666H4.66683C4.48016 9.66666 4.3335 9.51999 4.3335 9.33333C4.3335 9.14666 4.48016 8.99999 4.66683 8.99999H5.3335C5.52016 8.99999 5.66683 9.14666 5.66683 9.33333C5.66683 9.51999 5.52016 9.66666 5.3335 9.66666ZM5.3335 8.33333H4.66683C4.48016 8.33333 4.3335 8.18666 4.3335 7.99999C4.3335 7.81333 4.48016 7.66666 4.66683 7.66666H5.3335C5.52016 7.66666 5.66683 7.81333 5.66683 7.99999C5.66683 8.18666 5.52016 8.33333 5.3335 8.33333ZM5.3335 6.99999H4.66683C4.48016 6.99999 4.3335 6.85333 4.3335 6.66666C4.3335 6.47999 4.48016 6.33333 4.66683 6.33333H5.3335C5.52016 6.33333 5.66683 6.47999 5.66683 6.66666C5.66683 6.85333 5.52016 6.99999 5.3335 6.99999ZM7.3335 9.66666H6.66683C6.48016 9.66666 6.3335 9.51999 6.3335 9.33333C6.3335 9.14666 6.48016 8.99999 6.66683 8.99999H7.3335C7.52016 8.99999 7.66683 9.14666 7.66683 9.33333C7.66683 9.51999 7.52016 9.66666 7.3335 9.66666ZM7.3335 8.33333H6.66683C6.48016 8.33333 6.3335 8.18666 6.3335 7.99999C6.3335 7.81333 6.48016 7.66666 6.66683 7.66666H7.3335C7.52016 7.66666 7.66683 7.81333 7.66683 7.99999C7.66683 8.18666 7.52016 8.33333 7.3335 8.33333ZM7.3335 6.99999H6.66683C6.48016 6.99999 6.3335 6.85333 6.3335 6.66666C6.3335 6.47999 6.48016 6.33333 6.66683 6.33333H7.3335C7.52016 6.33333 7.66683 6.47999 7.66683 6.66666C7.66683 6.85333 7.52016 6.99999 7.3335 6.99999ZM9.3335 9.66666H8.66683C8.48016 9.66666 8.3335 9.51999 8.3335 9.33333C8.3335 9.14666 8.48016 8.99999 8.66683 8.99999H9.3335C9.52016 8.99999 9.66683 9.14666 9.66683 9.33333C9.66683 9.51999 9.52016 9.66666 9.3335 9.66666ZM9.3335 8.33333H8.66683C8.48016 8.33333 8.3335 8.18666 8.3335 7.99999C8.3335 7.81333 8.48016 7.66666 8.66683 7.66666H9.3335C9.52016 7.66666 9.66683 7.81333 9.66683 7.99999C9.66683 8.18666 9.52016 8.33333 9.3335 8.33333ZM9.3335 6.99999H8.66683C8.48016 6.99999 8.3335 6.85333 8.3335 6.66666C8.3335 6.47999 8.48016 6.33333 8.66683 6.33333H9.3335C9.52016 6.33333 9.66683 6.47999 9.66683 6.66666C9.66683 6.85333 9.52016 6.99999 9.3335 6.99999Z" fill="#6C6C6C"/>
</svg>
