<svg width="16" height="14" viewBox="0 0 16 14" fill="none" xmlns="http://www.w3.org/2000/svg">
<path d="M9.4143 5.98667C9.28928 5.86169 9.11974 5.79148 8.94296 5.79148C8.76619 5.79148 8.59665 5.86169 8.47163 5.98667L8.0003 6.45733C7.74883 6.70021 7.41203 6.8346 7.06243 6.83157C6.71283 6.82853 6.37842 6.6883 6.13121 6.44109C5.884 6.19388 5.74377 5.85946 5.74073 5.50987C5.73769 5.16027 5.87209 4.82347 6.11496 4.572L9.8683 0.817334C10.7569 0.615218 11.6866 0.698399 12.5253 1.05505C13.3639 1.4117 14.0687 2.02367 14.5396 2.80393C15.0104 3.58419 15.2232 4.49303 15.1478 5.40122C15.0725 6.30941 14.7127 7.17072 14.1196 7.86267L12.7143 9.286L9.4143 5.98667ZM2.10763 1.97867C2.79729 1.2886 3.69962 0.851452 4.66861 0.737966C5.63759 0.62448 6.61652 0.8413 7.44697 1.35333L5.17163 3.62933C4.67883 4.12115 4.39792 4.7862 4.38892 5.48237C4.37993 6.17855 4.64356 6.85063 5.12348 7.35502C5.60341 7.85941 6.26157 8.1561 6.95733 8.1817C7.65309 8.20729 8.33127 7.95976 8.84696 7.492L8.94296 7.40067L11.7716 10.2287L8.94296 13.0573C8.69293 13.3073 8.35385 13.4477 8.0003 13.4477C7.64675 13.4477 7.30767 13.3073 7.05763 13.0573L2.10697 8.10667C1.29439 7.29402 0.837891 6.19188 0.837891 5.04267C0.837891 3.89346 1.29505 2.79131 2.10763 1.97867Z" fill="#6C6C6C"/>
</svg>
