<svg width="16" height="16" viewBox="0 0 16 16" fill="none" xmlns="http://www.w3.org/2000/svg">
<path d="M7.30684 14C7.15173 14 7.01729 13.9491 6.90351 13.8473C6.78929 13.7456 6.7184 13.6187 6.69084 13.4667L6.51551 12.072C6.30262 12.0076 6.0724 11.9067 5.82484 11.7693C5.57773 11.6316 5.36729 11.484 5.19351 11.3267L3.91684 11.876C3.77595 11.9382 3.63284 11.9449 3.48751 11.896C3.34218 11.8471 3.23018 11.7549 3.15151 11.6193L2.43218 10.38C2.35351 10.2444 2.3304 10.1027 2.36284 9.95467C2.39529 9.80667 2.47262 9.68534 2.59484 9.59067L3.70951 8.75734C3.68951 8.63645 3.67329 8.51223 3.66084 8.38467C3.64751 8.25667 3.64084 8.13245 3.64084 8.012C3.64084 7.9 3.64751 7.78223 3.66084 7.65867C3.67329 7.53511 3.68951 7.396 3.70951 7.24134L2.59484 6.408C2.47262 6.31334 2.39751 6.19 2.36951 6.038C2.34151 5.886 2.36662 5.742 2.44484 5.606L3.15151 4.406C3.23018 4.27845 3.34218 4.18823 3.48751 4.13534C3.63284 4.08245 3.77595 4.08711 3.91684 4.14934L5.18084 4.68534C5.37995 4.51956 5.59551 4.37 5.82751 4.23667C6.05862 4.10334 6.28373 4.00023 6.50284 3.92734L6.69151 2.53267C6.71862 2.38067 6.78929 2.25378 6.90351 2.152C7.01773 2.05023 7.15218 1.99956 7.30684 2H8.69351C8.84862 2 8.98307 2.05089 9.09684 2.15267C9.21107 2.25445 9.28195 2.38134 9.30951 2.53334L9.48484 3.94134C9.7404 4.03111 9.96618 4.134 10.1622 4.25C10.3582 4.366 10.5602 4.51134 10.7682 4.686L12.0962 4.15C12.2375 4.08778 12.3808 4.08311 12.5262 4.136C12.6715 4.18889 12.7833 4.27911 12.8615 4.40667L13.5682 5.61934C13.6468 5.75534 13.67 5.89711 13.6375 6.04467C13.6051 6.19223 13.5277 6.31378 13.4055 6.40934L12.2402 7.28C12.2766 7.41778 12.2971 7.54423 12.3015 7.65934C12.306 7.77445 12.3082 7.88778 12.3082 7.99934C12.3082 8.10289 12.3037 8.212 12.2948 8.32667C12.2864 8.44178 12.2668 8.58089 12.2362 8.744L13.3628 9.59067C13.4851 9.68534 13.5646 9.80667 13.6015 9.95467C13.6384 10.1027 13.6175 10.2444 13.5388 10.38L12.8282 11.606C12.75 11.742 12.636 11.8342 12.4862 11.8827C12.3364 11.9316 12.1911 11.9249 12.0502 11.8627L10.7682 11.3133C10.5606 11.488 10.3517 11.6376 10.1415 11.762C9.93129 11.8864 9.7124 11.9853 9.48484 12.0587L9.30884 13.466C9.28173 13.618 9.21107 13.7449 9.09684 13.8467C8.98262 13.9484 8.84818 13.9996 8.69351 14H7.30684ZM7.98218 9.66667C8.44707 9.66667 8.84107 9.50511 9.16418 9.182C9.48729 8.85889 9.64884 8.46489 9.64884 8C9.64884 7.53511 9.48729 7.14111 9.16418 6.818C8.84107 6.49489 8.44707 6.33334 7.98218 6.33334C7.51462 6.33334 7.11995 6.49489 6.79818 6.818C6.4764 7.14111 6.31551 7.53511 6.31551 8C6.31551 8.46489 6.4764 8.85889 6.79818 9.182C7.11995 9.50511 7.51462 9.66667 7.98218 9.66667Z" fill="#6C6C6C"/>
</svg>
