<?xml version="1.0" encoding="UTF-8"?>
<svg version="1.1" xmlns="http://www.w3.org/2000/svg" width="256" height="256">
<path d="M0 0 C16.83958792 13.2845638 29.42028158 31.78812507 32.9375 53.2578125 C33.27836394 56.95405584 33.47355801 60.63312334 33.5625 64.34375 C33.58876465 65.0346875 33.6150293 65.725625 33.64208984 66.4375 C33.65225473 69.62770901 33.48681881 71.56500564 31.56433868 74.1581955 C28.44529577 76.53412334 26.59753872 76.47162957 22.69714355 76.47668457 C21.72232316 76.48604451 21.72232316 76.48604451 20.72780943 76.49559355 C18.55189364 76.51153852 16.37709581 76.49891481 14.20117188 76.48632812 C12.64058275 76.49174863 11.07999874 76.49887089 9.51942444 76.50756836 C5.2817971 76.52581337 1.04455902 76.51872947 -3.19307518 76.50605202 C-7.62616404 76.49593039 -12.05921941 76.50531536 -16.49230957 76.51159668 C-23.93715402 76.51887554 -31.38183979 76.50927917 -38.82666016 76.49023438 C-47.43596567 76.46846512 -56.0448923 76.47551633 -64.65418863 76.49754 C-72.04368793 76.51568724 -79.43307311 76.51825564 -86.82258749 76.50778532 C-91.23701787 76.50154665 -95.65127012 76.50072495 -100.06568909 76.51393127 C-104.21577773 76.5254794 -108.3653775 76.51748343 -112.51541328 76.49435425 C-114.03920746 76.48906154 -115.56304273 76.49059057 -117.0868206 76.49940491 C-119.16581843 76.51032289 -121.24324604 76.49664554 -123.32214355 76.47668457 C-124.48578178 76.47517647 -125.64942001 76.47366837 -126.84832001 76.47211456 C-130.46288852 75.85830376 -131.64598649 74.88387032 -133.8125 71.96875 C-134.22473085 69.21650287 -134.38417695 66.96193824 -134.3125 64.21875 C-134.29896484 63.46795166 -134.28542969 62.71715332 -134.27148438 61.94360352 C-133.50946585 40.79980475 -123.21086299 20.14702337 -107.859375 5.67578125 C-76.91627384 -20.12982029 -33.4586279 -24.1645646 0 0 Z " fill="#6B6B6B" transform="translate(141.8125,156.03125)"/>
<path d="M0 0 C9.82473174 7.22506046 16.12568105 17.22166756 18.7734375 29.171875 C20.56607848 42.90874182 17.89852101 55.99767545 9.4609375 67.109375 C2.00122438 75.74472771 -8.26938935 82.69254698 -19.87670898 83.89453125 C-35.69213014 84.68453614 -47.40915885 82.22678837 -59.7265625 71.671875 C-68.24511719 63.88926456 -72.99563079 52.44305549 -73.94140625 41.09375 C-74.38735497 28.60718581 -70.6899577 16.77273262 -62.6171875 7.16015625 C-45.69135296 -10.49524012 -20.76998532 -13.57778976 0 0 Z " fill="#6B6B6B" transform="translate(118.7265625,44.328125)"/>
<path d="M0 0 C12.2844218 9.55998828 21.13468217 22.44132417 24 38 C24.19571354 40.68407144 24.3214775 43.31414378 24.375 46 C24.43107422 47.06734375 24.43107422 47.06734375 24.48828125 48.15625 C24.54492473 51.5296841 24.36567477 53.54185633 22.23608398 56.20996094 C17.20513635 58.99282839 12.35164829 58.49162679 6.69921875 58.390625 C5.50770706 58.38496521 4.31619537 58.37930542 3.08857727 58.37347412 C-0.71219269 58.35110685 -4.51201557 58.30090685 -8.3125 58.25 C-10.89126242 58.22993559 -13.47003963 58.21168472 -16.04882812 58.1953125 C-22.36620785 58.15124071 -28.68303626 58.0843237 -35 58 C-35.1373909 57.46240051 -35.2747818 56.92480103 -35.41633606 56.37091064 C-36.05092384 53.89727575 -36.69143678 51.42521085 -37.33203125 48.953125 C-37.5479895 48.10766113 -37.76394775 47.26219727 -37.9864502 46.39111328 C-42.38464371 29.48440842 -51.92587852 9.04941432 -67 -1 C-67 -1.66 -67 -2.32 -67 -3 C-45.67083067 -14.93867222 -20.13599641 -14.4183678 0 0 Z " fill="#6B6B6B" transform="translate(224,152)"/>
<path d="M0 0 C0.64324219 0.350625 1.28648437 0.70125 1.94921875 1.0625 C7.09252599 4.27567242 10.07007011 8.77939764 13 14 C13.34289062 14.59296875 13.68578125 15.1859375 14.0390625 15.796875 C17.50668093 23.12100365 17.13907128 33.27836582 15.2734375 41.01171875 C14.34436871 43.47790543 13.29375631 45.70613602 12 48 C11.4740625 48.96486328 11.4740625 48.96486328 10.9375 49.94921875 C7.72432758 55.09252599 3.22060236 58.07007011 -2 61 C-2.59296875 61.34289062 -3.1859375 61.68578125 -3.796875 62.0390625 C-11.12100365 65.50668093 -21.27836582 65.13907128 -29.01171875 63.2734375 C-31.47790543 62.34436871 -33.70613602 61.29375631 -36 60 C-36.96486328 59.4740625 -36.96486328 59.4740625 -37.94921875 58.9375 C-43.09252599 55.72432758 -46.07007011 51.22060236 -49 46 C-49.34289062 45.40703125 -49.68578125 44.8140625 -50.0390625 44.203125 C-53.50668093 36.87899635 -53.13907128 26.72163418 -51.2734375 18.98828125 C-50.34436871 16.52209457 -49.29375631 14.29386398 -48 12 C-47.649375 11.35675781 -47.29875 10.71351562 -46.9375 10.05078125 C-43.72432758 4.90747401 -39.22060236 1.92992989 -34 -1 C-33.11054688 -1.51433594 -33.11054688 -1.51433594 -32.203125 -2.0390625 C-22.517475 -6.62474635 -9.06835379 -5.11461884 0 0 Z " fill="#6B6B6B" transform="translate(206,68)"/>
</svg>
